HIERARCHY
ROOT Hips
{
    OFFSET   0.000000   0.000000   0.000000
    CHANNELS 6 Xposition Yposition Zposition Zrotation Xrotation Yrotation
    JOINT Chest
    {
        OFFSET   0.000000   8.007230   0.000000
        CHANNELS 3 Zrotation Xrotation Yrotation
        JOINT Chest2
        {
            OFFSET   0.000000  22.077100   0.000000
            CHANNELS 3 Zrotation Xrotation Yrotation
            JOINT Neck
            {
                OFFSET   0.000000  23.254800  -0.000021
                CHANNELS 3 Zrotation Xrotation Yrotation
                JOINT Head
                {
                    OFFSET   0.000000  14.370000   1.956610
                    CHANNELS 3 Zrotation Xrotation Yrotation
                    End Site
                    {
                        OFFSET   0.000000  19.566000   0.000000
                    }
                }
            }
            JOINT LeftCollar
            {
                OFFSET   3.911900  19.017000  -0.467063
                CHANNELS 3 Zrotation Xrotation Yrotation
                JOINT LeftShoulder
                {
                    OFFSET  10.383700   0.000000   0.000000
                    CHANNELS 3 Zrotation Xrotation Yrotation
                    JOINT LeftElbow
                    {
                        OFFSET  26.662100   0.001529   0.000325
                        CHANNELS 3 Zrotation Xrotation Yrotation
                        JOINT LeftWrist
                        {
                            OFFSET  28.869000  -0.000011  -0.000096
                            CHANNELS 3 Zrotation Xrotation Yrotation
                            JOINT LeftFinger0
                            {
                                OFFSET   2.044650  -2.323460   3.252850
                                CHANNELS 3 Zrotation Xrotation Yrotation
                                JOINT LeftFinger01
                                {
                                    OFFSET   3.088130   0.000000   0.000000
                                    CHANNELS 3 Zrotation Xrotation Yrotation
                                    JOINT LeftFinger02
                                    {
                                        OFFSET   2.639460   0.000000   0.000000
                                        CHANNELS 3 Zrotation Xrotation Yrotation
                                        End Site
                                        {
                                            OFFSET   2.582190   0.000000   0.000000
                                        }
                                    }
                                }
                            }
                            JOINT LeftFinger1
                            {
                                OFFSET   8.364480   0.000000   3.252850
                                CHANNELS 3 Zrotation Xrotation Yrotation
                                JOINT LeftFinger11
                                {
                                    OFFSET   4.646930   0.000000   0.000000
                                    CHANNELS 3 Zrotation Xrotation Yrotation
                                    JOINT LeftFinger12
                                    {
                                        OFFSET   2.323460   0.000000   0.000000
                                        CHANNELS 3 Zrotation Xrotation Yrotation
                                        End Site
                                        {
                                            OFFSET   2.273050   0.000000   0.000000
                                        }
                                    }
                                }
                            }
                            JOINT LeftFinger2
                            {
                                OFFSET   8.364480   0.000016   1.078090
                                CHANNELS 3 Zrotation Xrotation Yrotation
                                JOINT LeftFinger21
                                {
                                    OFFSET   5.111620   0.000000   0.000000
                                    CHANNELS 3 Zrotation Xrotation Yrotation
                                    JOINT LeftFinger22
                                    {
                                        OFFSET   2.788160   0.000017   0.000000
                                        CHANNELS 3 Zrotation Xrotation Yrotation
                                        End Site
                                        {
                                            OFFSET   2.727660   0.000000   0.000000
                                        }
                                    }
                                }
                            }
                            JOINT LeftFinger3
                            {
                                OFFSET   7.899780   0.000015  -1.078090
                                CHANNELS 3 Zrotation Xrotation Yrotation
                                JOINT LeftFinger31
                                {
                                    OFFSET   4.646920   0.000000   0.000000
                                    CHANNELS 3 Zrotation Xrotation Yrotation
                                    JOINT LeftFinger32
                                    {
                                        OFFSET   2.323470   0.000000   0.000000
                                        CHANNELS 3 Zrotation Xrotation Yrotation
                                        End Site
                                        {
                                            OFFSET   2.273050   0.000000   0.000000
                                        }
                                    }
                                }
                            }
                            JOINT LeftFinger4
                            {
                                OFFSET   7.435090   0.000000  -3.252850
                                CHANNELS 3 Zrotation Xrotation Yrotation
                                JOINT LeftFinger41
                                {
                                    OFFSET   3.717550   0.000000   0.000000
                                    CHANNELS 3 Zrotation Xrotation Yrotation
                                    JOINT LeftFinger42
                                    {
                                        OFFSET   1.858760   0.000000   0.000000
                                        CHANNELS 3 Zrotation Xrotation Yrotation
                                        End Site
                                        {
                                            OFFSET   1.818440   0.000000   0.000000
                                        }
                                    }
                                }
                            }
                        }
                    }
                }
            }
            JOINT RightCollar
            {
                OFFSET  -3.911900  19.017000  -0.467062
                CHANNELS 3 Zrotation Xrotation Yrotation
                JOINT RightShoulder
                {
                    OFFSET -10.383700   0.000015   0.000000
                    CHANNELS 3 Zrotation Xrotation Yrotation
                    JOINT RightElbow
                    {
                        OFFSET -26.662100   0.001341   0.000385
                        CHANNELS 3 Zrotation Xrotation Yrotation
                        JOINT RightWrist
                        {
                            OFFSET -28.869000   0.000025  -0.000080
                            CHANNELS 3 Zrotation Xrotation Yrotation
                            JOINT RightFinger0
                            {
                                OFFSET  -2.044650  -2.323490   3.252850
                                CHANNELS 3 Zrotation Xrotation Yrotation
                                JOINT RightFinger01
                                {
                                    OFFSET  -3.088130   0.000000   0.000000
                                    CHANNELS 3 Zrotation Xrotation Yrotation
                                    JOINT RightFinger02
                                    {
                                        OFFSET  -2.639460   0.000000   0.000000
                                        CHANNELS 3 Zrotation Xrotation Yrotation
                                        End Site
                                        {
                                            OFFSET  -2.582190   0.000000   0.000000
                                        }
                                    }
                                }
                            }
                            JOINT RightFinger1
                            {
                                OFFSET  -8.364480   0.000000   3.252850
                                CHANNELS 3 Zrotation Xrotation Yrotation
                                JOINT RightFinger11
                                {
                                    OFFSET  -4.646930   0.000000   0.000000
                                    CHANNELS 3 Zrotation Xrotation Yrotation
                                    JOINT RightFinger12
                                    {
                                        OFFSET  -2.323470   0.000000   0.000000
                                        CHANNELS 3 Zrotation Xrotation Yrotation
                                        End Site
                                        {
                                            OFFSET  -2.273050   0.000000   0.000000
                                        }
                                    }
                                }
                            }
                            JOINT RightFinger2
                            {
                                OFFSET  -8.364480   0.000000   1.078090
                                CHANNELS 3 Zrotation Xrotation Yrotation
                                JOINT RightFinger21
                                {
                                    OFFSET  -5.111610   0.000000   0.000000
                                    CHANNELS 3 Zrotation Xrotation Yrotation
                                    JOINT RightFinger22
                                    {
                                        OFFSET  -2.788160   0.000000   0.000000
                                        CHANNELS 3 Zrotation Xrotation Yrotation
                                        End Site
                                        {
                                            OFFSET  -2.727660   0.000000   0.000000
                                        }
                                    }
                                }
                            }
                            JOINT RightFinger3
                            {
                                OFFSET  -7.899780   0.000000  -1.078090
                                CHANNELS 3 Zrotation Xrotation Yrotation
                                JOINT RightFinger31
                                {
                                    OFFSET  -4.646920   0.000000   0.000000
                                    CHANNELS 3 Zrotation Xrotation Yrotation
                                    JOINT RightFinger32
                                    {
                                        OFFSET  -2.323470   0.000000   0.000000
                                        CHANNELS 3 Zrotation Xrotation Yrotation
                                        End Site
                                        {
                                            OFFSET  -2.273050   0.000000   0.000000
                                        }
                                    }
                                }
                            }
                            JOINT RightFinger4
                            {
                                OFFSET  -7.435090   0.000000  -3.252850
                                CHANNELS 3 Zrotation Xrotation Yrotation
                                JOINT RightFinger41
                                {
                                    OFFSET  -3.717550   0.000000   0.000000
                                    CHANNELS 3 Zrotation Xrotation Yrotation
                                    JOINT RightFinger42
                                    {
                                        OFFSET  -1.858770   0.000000   0.000000
                                        CHANNELS 3 Zrotation Xrotation Yrotation
                                        End Site
                                        {
                                            OFFSET  -1.818440   0.000000   0.000000
                                        }
                                    }
                                }
                            }
                        }
                    }
                }
            }
        }
    }
    JOINT LeftHip
    {
        OFFSET   9.783010   0.000000   0.000000
        CHANNELS 3 Zrotation Xrotation Yrotation
        JOINT LeftKnee
        {
            OFFSET   0.000070 -41.789100   0.000028
            CHANNELS 3 Zrotation Xrotation Yrotation
            JOINT LeftAnkle
            {
                OFFSET   0.000087 -41.133200  -0.000100
                CHANNELS 3 Zrotation Xrotation Yrotation
                JOINT LeftToe
                {
                    OFFSET   0.000000  -6.358960  14.674500
                    CHANNELS 3 Zrotation Xrotation Yrotation
                    End Site
                    {
                        OFFSET   0.000000   0.000000   3.913200
                    }
                }
            }
        }
    }
    JOINT RightHip
    {
        OFFSET  -9.783020   0.000000   0.000000
        CHANNELS 3 Zrotation Xrotation Yrotation
        JOINT RightKnee
        {
            OFFSET   0.000044 -41.789100  -0.000870
            CHANNELS 3 Zrotation Xrotation Yrotation
            JOINT RightAnkle
            {
                OFFSET  -0.000090 -41.133200  -0.000245
                CHANNELS 3 Zrotation Xrotation Yrotation
                JOINT RightToe
                {
                    OFFSET   0.000000  -6.358960  14.674500
                    CHANNELS 3 Zrotation Xrotation Yrotation
                    End Site
                    {
                        OFFSET   0.000000   0.000000   3.913200
                    }
                }
            }
        }
    }
}
MOTION
Frames: 4
Frame Time:   0.016667
 -0.008926  90.120900  -0.282004  -1.236690  -0.180841  -0.304073  -0.150042   1.520060  -1.063100  -0.271976   3.042650  -2.123330   2.807030  -0.091021   0.012181   4.606460  -0.172087   3.070270  -4.535720  -3.721260   5.146960 -70.692400  19.702700   4.508980  -3.302110  -4.689140 -15.452900  11.799000  -5.345500  11.771200  43.014000  31.273700 -69.980000 -12.189500   0.007628   0.001696  -1.094130   0.006298  -0.001259 -21.119200   4.701180 -11.982500 -17.683400   0.001890   0.001391 -12.378300   0.001898   0.002193 -26.830600   1.641060  -3.230060 -26.877000  -0.003076   0.008285 -17.904400   0.002740   0.008508 -21.204500   1.079790  -2.802120 -21.230700   0.001643  -0.000809 -14.151300   0.000325  -0.000600 -24.096600   0.358859  -0.830761 -36.148700  -0.000444   0.009798 -24.075000   0.008131  -0.000574  11.673900   1.957080   7.494650  67.409900  13.032600  -4.428300   1.996160  -5.997830  11.374900  -9.838760 -23.761800   1.897240 -41.904100  27.334200  61.745200  21.139300  -0.000881  -0.014925   5.569680   0.004835  -0.004509  28.051600   0.698037   1.309690  22.957900   0.002729  -0.002308  16.070500   0.002354  -0.003681  26.219700  -1.660610  -3.367500  26.268500   0.003057  -0.003180  17.494800   0.006383   0.007870  24.155000  -4.568600 -10.071100  24.557700  -0.002545   0.010303  16.355500  -0.006500   0.008654  35.308100  -6.439290  -8.997860  53.722900  -0.000258   0.000529  35.779500   0.008956   0.003435   1.302460   0.460870   1.428490   0.772041   0.293698  15.685800  -5.255590  -2.272330   4.384700  -0.000000   0.000000  -0.000000   1.803820   0.193422  -7.715800  -0.293127   1.656860  -9.572550 -10.131400   1.778620   0.998715   0.000000   0.000000  -0.000000
 -0.013393  90.120900  -0.290353  -1.236730  -0.185894  -0.301247  -0.150176   1.522610  -1.057170  -0.272444   3.047730  -2.111470   2.807010  -0.085628   0.012296   4.606330  -0.165735   3.070600  -4.536530  -3.721340   5.134150 -70.688100  19.707500   4.508560  -3.302710  -4.666880 -15.454500  11.810700  -5.349980  11.771500  42.997000  31.235600 -69.934600 -12.187200   0.007611   0.001712  -1.094220   0.006290  -0.001209 -21.119300   4.701210 -11.981200 -17.683400   0.001889   0.001369 -12.378300   0.001876   0.002163 -26.832100   1.635830  -3.225370 -26.878200  -0.003076   0.008295 -17.904400   0.002727   0.008517 -21.211400   1.079800  -2.792840 -21.237600   0.001652  -0.000815 -14.151300   0.000308  -0.000605 -24.107900   0.358993  -0.825534 -36.165600  -0.000445   0.009798 -24.086300   0.008132  -0.000551  11.674400   1.957170   7.476760  67.420500  13.039800  -4.428420   2.020790  -6.022490  11.384000  -9.765450 -23.827400   2.035190 -41.950700  27.389700  61.755000  21.122600  -0.000881  -0.014927   5.561320   0.004837  -0.004509  28.034000   0.686655   1.289700  22.943300   0.002727  -0.002308  16.060300   0.002357  -0.003676  26.195000  -1.675440  -3.404480  26.244800   0.003060  -0.003183  17.479000   0.006383   0.007869  24.141200  -4.583300 -10.111000  24.547200  -0.002540   0.010300  16.348400  -0.006498   0.008652  35.306900  -6.464300  -9.031640  53.726900  -0.000260   0.000522  35.782100   0.008955   0.003429   1.301830   0.455040   1.428310   0.776292   0.300092  15.686000  -5.261070  -2.265350   4.383430  -0.000000   0.000000  -0.000000   1.802940   0.187838  -7.716220  -0.291090   1.661940  -9.572090 -10.135400   1.780500   0.997196   0.000000   0.000000  -0.000000
 -0.020554  90.120900  -0.304970  -1.236800  -0.197131  -0.294922  -0.150411   1.529060  -1.050260  -0.272888   3.060590  -2.097600   2.806950  -0.078062   0.012410   4.606350  -0.156452   3.072890  -4.537350  -3.721430   5.121330 -70.679500  19.717700   4.504990  -3.305990  -4.644540 -15.459300  11.829900  -5.366590  11.772100  42.980100  31.197500 -69.889200 -12.185000   0.007572   0.001728  -1.094370   0.006273  -0.001112 -21.119400   4.701230 -11.979900 -17.683400   0.001883   0.001310 -12.378300   0.001819   0.002093 -26.837600   1.630590  -3.218930 -26.883400  -0.003076   0.008318 -17.904400   0.002694   0.008541 -21.222000   1.079810  -2.778390 -21.248200   0.001674  -0.000828 -14.151300   0.000267  -0.000619 -24.119200   0.359127  -0.815973 -36.182500  -0.000446   0.009800 -24.097500   0.008133  -0.000500  11.674800   1.957270   7.458870  67.431900  13.057600  -4.428670   2.057750  -6.054430  11.407900  -9.669920 -23.892100   2.227290 -42.027700  27.482100  61.779900  21.092800  -0.000882  -0.014937   5.546390   0.004839  -0.004503  27.999200   0.675274   1.269710  22.914600   0.002723  -0.002307  16.040200   0.002361  -0.003666  26.153000  -1.694290  -3.445810  26.203900   0.003067  -0.003191  17.451800   0.006384   0.007866  24.118300  -4.597990 -10.151600  24.526900  -0.002528   0.010298  16.334900  -0.006492   0.008650  35.305400  -6.489270  -9.067280  53.730800  -0.000266   0.000504  35.784800   0.008951   0.003414   1.301200   0.449210   1.428130   0.782696   0.311018  15.686200  -5.270880  -2.255300   4.380150  -0.000000   0.000000   0.000000   1.801980   0.182254  -7.716640  -0.287755   1.669980  -9.571650 -10.142100   1.784200   0.992548  -0.000000   0.000000  -0.000000
 -0.025496  90.120900  -0.318170  -1.236890  -0.212008  -0.285897  -0.150787   1.538910  -1.049370  -0.273405   3.080310  -2.095800   2.806820  -0.075230   0.012208   4.606960  -0.152009   3.097210  -4.537310  -3.721120   5.121970 -70.668000  19.727300   4.493110  -3.309970  -4.644890 -15.468800  11.848200  -5.410160  11.773100  42.990800  31.227900 -69.928800 -12.190200   0.007517   0.001713  -1.094530   0.006252  -0.000994 -21.130400   4.704640 -11.981700 -17.692700   0.001866   0.001214 -12.384900   0.001735   0.001991 -26.848900   1.630630  -3.216590 -26.894800  -0.003076   0.008351 -17.910600   0.002642   0.008579 -21.228500   1.080290  -2.767050 -21.254700   0.001706  -0.000851 -14.154400   0.000201  -0.000640 -24.117900   0.357790  -0.805030 -36.182500  -0.000448   0.009803 -24.096200   0.008135  -0.000431  11.674800   1.957110   7.460180  67.430500  13.083300  -4.422380   2.079240  -6.062430  11.448600  -9.643770 -23.878600   2.300610 -42.093700  27.564100  61.821500  21.056900  -0.000892  -0.014960   5.528450   0.004837  -0.004489  27.948100   0.677805   1.276560  22.872800   0.002717  -0.002301  16.011000   0.002363  -0.003653  26.107700  -1.698570  -3.450730  26.159000   0.003079  -0.003205  17.421900   0.006385   0.007863  24.090800  -4.591680 -10.152300  24.498800  -0.002512   0.010300  16.316200  -0.006485   0.008648  35.279400  -6.482020  -9.069100  53.691400  -0.000277   0.000479  35.758600   0.008944   0.003391   1.301170   0.451865   1.428970   0.786426   0.322755  15.685000  -5.280770  -2.252410   4.374310  -0.000000   0.000000   0.000000   1.802120   0.184423  -7.714310  -0.285154   1.675430  -9.574190 -10.146700   1.788800   0.983818  -0.000000   0.000000   0.000000
